<svg width="42" height="42" viewBox="0 0 42 42" fill="none" xmlns="http://www.w3.org/2000/svg">
<g id="shape-2  1">
<path id="Vector" d="M38.2192 25.7523L31.5676 19.5586L31.1909 21.8652L27.1908 21.2125L31.1228 16.4035L33.0742 17.9991L33.9578 8.95316L25.2676 11.6168L27.0766 13.0956L24.515 16.2292L22.3159 10.4198L24.6737 9.52772L17.2813 4.2395L15.2431 13.0969L17.4279 12.2699L18.8618 16.0587L12.7315 15.0583L13.1372 12.5702L4.8615 16.3284L11.5135 22.5221L11.8894 20.2171L15.8869 20.8694L11.9549 25.6784L10.0036 24.0828L9.11988 33.1288L17.8101 30.4651L15.9999 28.9855L18.564 25.8493L20.7631 31.6588L18.4052 32.5513L25.7977 37.8395L27.8359 28.9817L25.6519 29.8083L24.2189 26.022L30.3496 27.0224L29.9435 29.5101L38.2192 25.7523Z" fill="#B1C346"/>
</g>
</svg>
