<svg width="802" height="85" viewBox="0 0 802 85" fill="none" xmlns="http://www.w3.org/2000/svg">
<path fill-rule="evenodd" clip-rule="evenodd" d="M95.4391 0.983398H117.58V82.8705H95.4391V0.983398ZM64.7531 43.1508C81.2938 44.6343 89.5641 50.7907 89.5641 61.6199C89.5641 68.2214 86.6342 73.4135 80.7746 77.1963C74.9149 80.9791 66.1624 82.8705 54.5173 82.8705H0V4.98875H54.5173C64.3081 4.98875 72.0221 6.91725 77.6593 10.7743C83.3706 14.6313 86.2263 19.675 86.2263 25.9056C86.2263 35.6223 79.0686 41.3707 64.7531 43.1508ZM23.142 22.7903V35.1401H53.4047C56.4458 35.1401 58.8193 34.5838 60.5253 33.4712C62.2313 32.3586 63.0843 30.8381 63.0843 28.9096C63.0843 24.8301 59.8577 22.7903 53.4047 22.7903H23.142ZM52.1808 65.069C57.2987 65.069 60.9332 64.5869 63.0843 63.6226C65.3094 62.6584 66.4221 60.9895 66.4221 58.6159C66.4221 56.1682 65.3465 54.4622 63.1955 53.498C61.0445 52.5337 57.7438 52.0516 53.2934 52.0516H23.142V65.069H52.1808ZM200.384 52.7192C200.384 33.2116 188.22 23.3837 163.891 23.2353C159.44 23.2353 155.324 23.5691 151.541 24.2367C147.758 24.8301 144.161 25.8685 140.749 27.352C137.411 28.7612 134.667 30.8381 132.516 33.5825C130.365 36.3269 129.066 39.5905 128.621 43.3734H149.316C151.318 39.8872 156.177 38.1441 163.891 38.1441C172.643 38.1441 177.39 40.9256 178.132 46.4886L158.105 47.7125C146.831 48.38 138.338 50.086 132.627 52.8304C126.99 55.5007 124.171 59.8769 124.171 65.9591C124.171 71.4479 126.47 75.8612 131.069 79.199C135.668 82.5368 142.306 84.2057 150.985 84.2057C164.039 84.2057 173.645 79.9778 179.801 71.5221V82.8705H200.384V52.7192ZM172.235 66.1816C168.304 68.2584 163.223 69.2969 156.993 69.2969C149.724 69.2969 146.089 67.7763 146.089 64.7352C146.089 63.1034 147.276 61.9166 149.65 61.1749C152.097 60.4332 155.88 59.914 160.998 59.6173L178.243 58.5047V59.3947C178.243 61.8425 176.241 64.1047 172.235 66.1816ZM286.071 60.8411C284.885 68.1843 280.768 73.9327 273.721 78.0864C266.675 82.1659 257.848 84.2057 247.242 84.2057C234.484 84.2057 224.471 81.5725 217.202 76.3062C209.933 70.9658 206.298 63.4372 206.298 53.7205C206.298 44.0038 209.895 36.5123 217.09 31.246C224.359 25.9056 234.224 23.2353 246.685 23.2353C256.995 23.2353 265.674 25.238 272.72 29.2434C279.767 33.2487 283.846 38.8117 284.959 45.9323L263.486 47.1562C262.225 44.931 260.111 43.1879 257.144 41.927C254.177 40.5919 250.691 39.9243 246.685 39.9243C241.048 39.9243 236.561 41.1852 233.223 43.7071C229.885 46.229 228.216 49.5668 228.216 53.7205C228.216 57.8742 229.922 61.212 233.334 63.7339C236.746 66.2558 241.382 67.5167 247.242 67.5167C251.692 67.5167 255.364 66.8121 258.256 65.4028C261.223 63.9935 263.3 62.1021 264.487 59.7285L286.071 60.8411ZM341.708 82.8705H370.413L337.703 51.8291L368.188 24.5705H341.263L321.459 45.0422H313.671V0.983398H291.53V82.8705H313.671V62.2875H321.125L341.708 82.8705ZM467.113 4.98875H490.255V82.8705H467.113V52.7192H422.386V82.8705H399.244V4.98875H422.386V33.805H467.113V4.98875ZM499.081 53.7205C499.081 63.2888 502.863 70.7803 510.429 76.195C513.678 78.4885 517.399 80.2896 521.593 81.5981V75.8561H526.921C526.704 75.5928 526.489 75.3405 526.279 75.0937C525.845 74.5834 525.43 74.0961 525.052 73.5813C523.09 70.9128 521.661 67.9774 521.042 64.7017C520.347 61.0191 520.65 57.4279 522.338 54.0253C522.353 53.9951 522.359 53.96 522.367 53.9058C522.372 53.8725 522.378 53.8319 522.388 53.7809C520.924 53.9514 519.721 54.6589 518.48 55.3893C518.167 55.5736 517.851 55.7593 517.528 55.9383C517.579 55.7818 517.626 55.6308 517.671 55.4841C517.773 55.1538 517.867 54.846 517.989 54.5495C518.168 54.1154 518.387 53.6956 518.614 53.284C519.79 51.1445 521.353 49.3156 523.107 47.6493C525.512 45.3639 528.147 43.3821 530.98 41.6695C531.02 41.6459 531.056 41.617 531.111 41.5734C531.142 41.5489 531.179 41.5198 531.225 41.4844C529.945 41.2304 528.762 41.4636 527.602 41.6923C527.24 41.7636 526.881 41.8345 526.521 41.8901C527.817 40.2605 531.922 37.4081 536.169 36.3087C539.915 35.3386 543.668 35.2532 547.415 36.1118C548.499 34.0891 550.271 32.8549 552.048 31.6175C552.495 31.3066 552.941 30.9955 553.378 30.6716C553.235 31.4719 553.095 32.2569 552.956 33.038L552.76 34.1419L553.675 33.3978C554.137 33.0229 554.58 32.6624 555.008 32.3142C554.987 32.7215 554.959 33.1236 554.932 33.5221C554.87 34.4361 554.809 35.3309 554.829 36.2245C554.856 37.3998 554.991 38.587 555.226 39.7386C555.295 40.0765 555.542 40.378 555.789 40.6793C555.899 40.8138 556.009 40.9483 556.103 41.0859C557.446 43.0523 558.449 45.2014 559.334 47.4026C559.735 48.3999 560.104 49.4109 560.473 50.4218C560.849 51.4511 561.225 52.4804 561.635 53.4951C561.867 54.0694 562.23 54.593 562.591 55.1122C562.679 55.2386 562.766 55.3647 562.852 55.4912C563.913 57.0591 564.225 58.7693 563.803 60.6017C563.537 61.7628 562.933 62.6523 561.744 63.1065C561.684 63.1292 561.625 63.1521 561.565 63.1749C560.615 63.5394 559.672 63.9014 558.644 63.7161C557.036 63.4255 556.272 62.2407 555.889 60.7736C555.75 60.2399 555.572 59.9778 554.996 59.8699C553.028 59.4999 551.382 58.4514 549.945 57.0994C549.192 56.3923 548.488 55.6325 547.772 54.8593C547.447 54.5081 547.119 54.1542 546.783 53.8011C544.713 54.9077 543.528 56.7258 543.196 59.112C542.777 62.1186 543.543 64.9306 544.78 67.6169C545.358 68.8705 546.095 70.0577 546.847 71.2164C547.76 72.6206 548.412 74.1067 548.622 75.8454H553.319V82.71H555.811C561.758 81.3995 566.88 79.2278 571.177 76.195C578.743 70.7803 582.525 63.2888 582.525 53.7205C582.525 44.1522 578.743 36.6978 571.177 31.3573C563.611 25.9427 553.487 23.2353 540.803 23.2353C528.119 23.2353 517.995 25.9427 510.429 31.3573C502.863 36.6978 499.081 44.1522 499.081 53.7205ZM632.712 23.2353C635.902 23.2353 638.98 23.6062 641.947 24.3479V43.5959C637.496 42.8541 633.417 42.4833 629.708 42.4833C623.181 42.4833 618.434 44.1151 615.467 47.3787C612.5 50.6423 611.017 56.1682 611.017 63.9564V82.8705H588.876V24.5705H609.459V38.923C611.758 33.805 614.911 29.9109 618.916 27.2407C622.921 24.5705 627.52 23.2353 632.712 23.2353ZM676.811 38.1441C686.75 38.1441 692.684 39.8872 694.613 43.3734L715.084 42.5945C714.565 39.1826 713.193 36.2156 710.968 33.6938C708.817 31.0977 705.998 29.0579 702.512 27.5745C699.1 26.091 695.354 25.0155 691.275 24.3479C687.269 23.6062 682.893 23.2353 678.146 23.2353C673.547 23.2353 669.357 23.5691 665.574 24.2367C661.791 24.8301 658.305 25.8314 655.115 27.2407C651.926 28.5758 649.441 30.5043 647.661 33.0262C645.881 35.4739 644.991 38.4038 644.991 41.8157C644.991 45.9694 646.623 49.5668 649.886 52.6079C653.15 55.5748 658.156 57.6888 664.906 58.9497L689.161 63.2888C693.092 64.0306 695.058 65.1803 695.058 66.7379C695.058 68.4439 690.681 69.2969 681.929 69.2969C670.729 69.2969 664.35 67.3684 662.792 63.5114L642.321 64.1789C644.027 77.5301 656.525 84.2057 679.815 84.2057C704.737 84.2057 717.198 77.9751 717.198 65.514C717.198 56.5391 709.892 50.7907 695.28 48.2688L672.694 44.3747C668.986 43.7813 667.131 42.6687 667.131 41.0369C667.131 39.1084 670.358 38.1441 676.811 38.1441ZM801.174 58.1709V60.2848H742.318C744.84 66.2928 751.552 69.2969 762.456 69.2969C769.799 69.2969 775.102 67.9988 778.366 65.4028L800.173 66.2928C797.948 72.0784 793.609 76.5287 787.155 79.644C780.777 82.6851 772.543 84.2057 762.456 84.2057C749.179 84.2057 738.683 81.7209 730.969 76.7513C723.329 71.7075 719.51 64.0306 719.51 53.7205C719.51 43.4846 723.255 35.8448 730.747 30.801C738.312 25.7572 748.548 23.2353 761.454 23.2353C774.657 23.2353 784.559 26.0168 791.161 31.5798C797.836 37.1428 801.174 46.0065 801.174 58.1709ZM761.454 38.1441C751.07 38.1441 744.691 41.1482 742.318 47.1562H779.367C778.255 41.1482 772.284 38.1441 761.454 38.1441Z" fill="white"/>
</svg>
